<?xml version="1.0" standalone="no"?>
<!DOCTYPE svg PUBLIC "-//W3C//DTD SVG 20010904//EN"
 "http://www.w3.org/TR/2001/REC-SVG-20010904/DTD/svg10.dtd">
<svg version="1.0" xmlns="http://www.w3.org/2000/svg"
 width="2048.000000pt" height="2048.000000pt" viewBox="0 0 2048.000000 2048.000000"
 preserveAspectRatio="xMidYMid meet">

<g transform="translate(0.000000,2048.000000) scale(0.100000,-0.100000)"
fill="#000000" stroke="none">
<path d="M4340 19100 l0 -1380 460 0 460 0 0 460 0 460 420 0 420 0 0 -460 0
-460 460 0 460 0 0 1380 0 1380 -460 0 -460 0 0 -455 0 -455 -420 0 -420 0 0
455 0 455 -460 0 -460 0 0 -1380z"/>
<path d="M7430 20020 l0 -460 405 0 405 0 0 -920 0 -920 460 0 460 0 0 920 0
920 410 0 410 0 0 460 0 460 -1275 0 -1275 0 0 -460z"/>
<path d="M10380 19100 l0 -1380 450 0 450 0 0 681 c0 374 3 678 8 675 4 -2
149 -223 322 -489 173 -267 317 -484 321 -482 3 3 147 222 320 488 l314 485 3
-679 2 -679 460 0 460 0 0 1380 0 1380 -482 0 -483 -1 -294 -485 -294 -485
-33 53 c-18 29 -151 248 -296 485 l-263 433 -482 0 -483 0 0 -1380z"/>
<path d="M13950 19100 l0 -1380 1110 0 1110 0 0 455 0 455 -650 0 -650 0 0
925 0 925 -460 0 -460 0 0 -1380z"/>
<path d="M2990 16433 c1 -52 1317 -14784 1321 -14788 10 -10 5895 -1636 5919
-1636 29 1 5926 1634 5937 1644 5 6 1322 14712 1323 14780 0 16 -352 17 -7250
17 -6898 0 -7250 -1 -7250 -17z m11796 -3045 c-3 -24 -39 -414 -81 -868 -41
-454 -77 -844 -81 -867 l-5 -43 -3470 0 -3469 0 0 -27 c0 -16 36 -424 80 -908
44 -484 80 -888 80 -897 0 -17 164 -18 3310 -18 l3311 0 -5 -32 c-3 -18 -117
-1275 -252 -2793 -136 -1518 -247 -2761 -248 -2762 -2 -3 -3708 -1034 -3721
-1035 -10 -1 -3717 1031 -3723 1037 -2 2 -59 626 -127 1387 -68 760 -126 1402
-129 1426 l-6 42 915 0 915 0 4 -22 c3 -13 32 -338 66 -723 33 -385 64 -702
68 -706 4 -3 459 -126 1011 -273 l1004 -268 1010 271 c555 149 1011 272 1012
273 2 4 212 2342 210 2345 -1 2 -1417 6 -3148 9 -2701 6 -3147 9 -3147 21 0 8
-110 1234 -245 2724 -135 1490 -245 2718 -245 2729 0 20 9 20 4556 20 l4556 0
-6 -42z"/>
</g>
</svg>
