<?xml version="1.0" encoding="UTF-8" standalone="no"?>
<svg
   viewBox="0 0 512 512"
   version="1.1"
   id="svg12"
   sodipodi:docname="certificate.svg"
   inkscape:version="1.2.1 (9c6d41e410, 2022-07-14)"
   xmlns:inkscape="http://www.inkscape.org/namespaces/inkscape"
   xmlns:sodipodi="http://sodipodi.sourceforge.net/DTD/sodipodi-0.dtd"
   xmlns="http://www.w3.org/2000/svg"
   xmlns:svg="http://www.w3.org/2000/svg">
  <defs
     id="defs16" />
  <sodipodi:namedview
     id="namedview14"
     pagecolor="#ffffff"
     bordercolor="#000000"
     borderopacity="0.25"
     inkscape:showpageshadow="2"
     inkscape:pageopacity="0.0"
     inkscape:pagecheckerboard="0"
     inkscape:deskcolor="#d1d1d1"
     showgrid="false"
     inkscape:zoom="1.6269531"
     inkscape:cx="234.79472"
     inkscape:cy="305.17167"
     inkscape:window-width="1920"
     inkscape:window-height="991"
     inkscape:window-x="-9"
     inkscape:window-y="1341"
     inkscape:window-maximized="1"
     inkscape:current-layer="svg12" />
  <!--! Font Awesome Pro 6.1.1 by @fontawesome - https://fontawesome.com License - https://fontawesome.com/license (Commercial License) Copyright 2022 Fonticons, Inc. -->
  <path
     d="M256 53.46L300.1 7.261C307 1.034 315.1-1.431 324.4 .8185C332.8 3.068 339.3 9.679 341.4 18.1L357.3 80.6L419.3 63.07C427.7 60.71 436.7 63.05 442.8 69.19C448.1 75.34 451.3 84.33 448.9 92.69L431.4 154.7L493.9 170.6C502.3 172.7 508.9 179.2 511.2 187.6C513.4 196 510.1 204.1 504.7 211L458.5 256L504.7 300.1C510.1 307 513.4 315.1 511.2 324.4C508.9 332.8 502.3 339.3 493.9 341.4L431.4 357.3L448.9 419.3C451.3 427.7 448.1 436.7 442.8 442.8C436.7 448.1 427.7 451.3 419.3 448.9L357.3 431.4L341.4 493.9C339.3 502.3 332.8 508.9 324.4 511.2C315.1 513.4 307 510.1 300.1 504.7L256 458.5L211 504.7C204.1 510.1 196 513.4 187.6 511.2C179.2 508.9 172.7 502.3 170.6 493.9L154.7 431.4L92.69 448.9C84.33 451.3 75.34 448.1 69.19 442.8C63.05 436.7 60.71 427.7 63.07 419.3L80.6 357.3L18.1 341.4C9.679 339.3 3.068 332.8 .8186 324.4C-1.431 315.1 1.034 307 7.261 300.1L53.46 256L7.261 211C1.034 204.1-1.431 196 .8186 187.6C3.068 179.2 9.679 172.7 18.1 170.6L80.6 154.7L63.07 92.69C60.71 84.33 63.05 75.34 69.19 69.19C75.34 63.05 84.33 60.71 92.69 63.07L154.7 80.6L170.6 18.1C172.7 9.679 179.2 3.068 187.6 .8185C196-1.431 204.1 1.034 211 7.261L256 53.46z"
     id="path10" />
  <path
     style="fill:#000000;stroke-width:0.614646"
     d="m 187.73088,510.89031 c -6.09511,-1.72604 -12.10313,-6.72457 -14.91933,-12.41252 -0.85628,-1.72945 -5.06255,-17.04851 -9.61977,-35.03481 -4.454,-17.57887 -8.1918,-32.05567 -8.30624,-32.17067 -0.11443,-0.11498 -13.9896,3.67776 -30.83371,8.42833 -16.84411,4.75057 -32.050605,8.94146 -33.792204,9.3131 -6.786883,1.44821 -16.433848,-2.0239 -21.733097,-7.82213 -4.038992,-4.41929 -5.722353,-8.88888 -5.740547,-15.24203 -0.01291,-4.50901 0.739972,-7.56125 9.069954,-36.77051 4.996223,-17.51934 8.989227,-31.9477 8.873354,-32.06301 -0.115873,-0.11531 -14.593396,-3.8562 -32.172267,-8.31308 -18.407444,-4.66695 -33.334112,-8.77358 -35.198097,-9.6837 -4.1067172,-2.00516 -8.9529891,-7.10692 -11.0809235,-11.66508 -1.42691228,-3.05652 -1.65153393,-4.33169 -1.65701546,-9.40684 -0.005977,-5.53362 0.12387726,-6.1345 2.25959046,-10.45582 2.5561427,-5.172 4.3676184,-7.0509 33.6908515,-34.94468 9.296518,-8.84333 16.971793,-16.27575 17.056166,-16.51648 C 53.711968,255.88964 43.061367,245.27914 29.959592,232.5515 4.4471715,207.7676 2.3191904,205.26099 0.87160053,198.28799 c -0.92625441,-4.46174 -0.32260137,-9.89584 1.55484057,-13.99672 1.9701659,-4.30341 6.8870565,-9.43531 10.9324849,-11.41055 1.863985,-0.91012 16.790653,-5.01675 35.198097,-9.6837 17.578871,-4.45688 32.056394,-8.19777 32.172267,-8.31308 0.115873,-0.11531 -3.877131,-14.54367 -8.873354,-32.06301 -8.329982,-29.209259 -9.082861,-32.261505 -9.069954,-36.77051 0.02041,-7.123838 1.724531,-11.148741 6.920114,-16.344324 5.195583,-5.195583 9.220486,-6.899708 16.344324,-6.920114 4.509005,-0.01291 7.561251,0.739972 36.77051,9.069954 17.51934,4.996223 31.9477,8.989227 32.06301,8.873354 0.11531,-0.115873 3.85585,-14.593396 8.3123,-32.172267 4.45646,-17.578872 8.76912,-33.375457 9.5837,-35.103523 1.85339,-3.9318083 7.19954,-9.0530569 11.51133,-11.0270589 4.10088,-1.87744194 9.53498,-2.48109499 13.99672,-1.55484057 6.98958,1.45103107 9.49534,3.57731927 34.27457,29.08401847 12.72157,13.095039 23.32676,23.743778 23.5671,23.663866 0.24034,-0.07991 4.64655,-4.570746 9.79158,-9.979629 33.24892,-34.9540366 36.63723,-38.2718588 41.57717,-40.7121997 4.43328,-2.19004759 4.99418,-2.31242001 10.55107,-2.30190398 5.06002,0.009576 6.35621,0.23795025 9.40472,1.65701558 4.56049,2.1228737 9.88192,7.1747013 11.76689,11.1707321 0.81515,1.728066 5.12898,17.524651 9.5863,35.103523 4.45732,17.578871 8.20054,32.059534 8.31827,32.179255 0.11772,0.119721 14.54491,-3.873953 32.0604,-8.874835 29.22887,-8.345175 32.2505,-9.09122 36.76352,-9.076936 6.36561,0.02016 10.82265,1.702956 15.2659,5.763829 5.82276,5.321678 9.25511,14.875991 7.79971,21.71129 -0.37083,1.741599 -4.56494,16.944884 -9.32023,33.785064 -4.75529,16.84019 -8.5487,30.71419 -8.42978,30.83111 0.11892,0.11693 14.59893,3.85949 32.1778,8.31681 17.57887,4.45732 33.37545,8.77115 35.10352,9.5863 4.0002,1.88694 9.05186,7.21114 11.16453,11.76689 2.16717,4.67328 2.26725,11.69672 0.23707,16.63745 -2.67335,6.50595 -5.53716,9.71679 -28.59778,32.06322 -12.72678,12.33262 -23.0687,22.61968 -22.98205,22.86012 0.0867,0.24045 10.52969,10.34777 23.20676,22.46072 12.67707,12.11295 23.92955,23.33424 25.0055,24.9362 3.38582,5.04105 4.71846,9.32062 4.73023,15.19037 0.009,4.36114 -0.25805,5.80878 -1.61448,8.76032 -2.08855,4.5446 -7.13966,9.87527 -11.14978,11.76689 -1.72807,0.81515 -17.52465,5.12898 -35.10352,9.5863 -17.57887,4.45732 -32.05888,8.19988 -32.1778,8.31681 -0.11892,0.11692 3.67449,13.99092 8.42978,30.83111 10.47186,37.08459 10.19152,35.85239 9.29499,40.85349 -1.96913,10.98439 -9.1631,18.17552 -20.18115,20.17318 -4.99414,0.90548 -3.71003,1.19752 -40.85189,-9.29062 -16.8393,-4.75508 -30.7133,-8.54759 -30.83111,-8.42779 -0.1178,0.1198 -3.86143,14.60054 -8.31917,32.17941 -4.67461,18.43409 -8.77426,33.33141 -9.68631,35.19809 -2.01531,4.12479 -7.12779,8.96954 -11.66612,11.05521 -2.95154,1.35643 -4.39918,1.62323 -8.76032,1.61448 -5.72453,-0.0115 -9.72092,-1.21283 -14.84529,-4.46261 -1.53982,-0.97653 -12.80612,-12.24854 -25.03622,-25.04892 -12.2301,-12.80038 -22.44049,-23.34431 -22.68975,-23.43096 -0.24926,-0.0867 -10.54353,10.25527 -22.87615,22.98205 -12.97848,13.39327 -23.76508,24.00632 -25.60944,25.1974 -6.72659,4.34399 -14.16836,5.96745 -19.90615,4.34259 z"
     id="path923" />
  <path
     style="fill:#000000;stroke-width:0.614646"
     d="m 187.73088,510.89031 c -6.09358,-1.7256 -12.09958,-6.72163 -14.92179,-12.41252 -0.86107,-1.73632 -5.04792,-16.9771 -9.62454,-35.03481 -4.45526,-17.57887 -8.18892,-32.05263 -8.29702,-32.16391 -0.1081,-0.11128 -13.98112,3.68226 -30.82895,8.43009 -16.84783,4.74783 -32.057355,8.93568 -33.798954,9.30635 -6.790005,1.44508 -16.435237,-2.02719 -21.733097,-7.8239 -4.03732,-4.41747 -5.721763,-8.88836 -5.742557,-15.24203 -0.01475,-4.51103 0.733887,-7.54862 9.06398,-36.77648 4.994041,-17.52263 8.987954,-31.94981 8.875363,-32.0604 -0.112591,-0.1106 -14.587421,-3.84833 -32.166292,-8.30607 -18.434092,-4.67461 -33.331413,-8.77426 -35.198097,-9.68631 -4.1105864,-2.00837 -8.9563725,-7.11227 -11.0761581,-11.66612 -1.41906533,-3.04851 -1.64743982,-4.3447 -1.65701558,-9.40472 -0.0104743,-5.53483 0.11779848,-6.12983 2.25361278,-10.45336 2.5520126,-5.16604 4.762131,-7.45875 33.9993869,-35.26985 9.12749,-8.68226 16.660821,-15.97666 16.740733,-16.20976 C 53.699397,255.8834 43.050658,245.28413 29.955619,232.56256 4.4489198,207.78333 2.3226316,205.27757 0.87160053,198.28799 c -0.92625441,-4.46174 -0.32260137,-9.89584 1.55484057,-13.99672 1.9698328,-4.30268 6.8864302,-9.43474 10.9324849,-11.41159 1.866684,-0.91205 16.764005,-5.0117 35.198097,-9.68631 17.578871,-4.45774 32.053701,-8.19547 32.166292,-8.30607 0.112591,-0.11059 -3.881322,-14.53777 -8.875363,-32.0604 -8.330093,-29.22786 -9.078743,-32.265453 -9.06398,-36.77648 0.0233,-7.124882 1.7282,-11.150407 6.922124,-16.344324 5.191292,-5.191299 9.217788,-6.897372 16.344324,-6.925295 4.515391,-0.0177 7.520672,0.722571 36.78059,9.05988 17.52487,4.99353 31.95108,8.98887 32.05823,8.878535 0.10716,-0.110336 3.84207,-14.583322 8.2998,-32.162193 4.45774,-17.578872 8.77255,-33.375457 9.58846,-35.103523 1.8566,-3.9321575 7.20494,-9.0544108 11.51377,-11.0270589 4.10088,-1.87744194 9.53498,-2.48109499 13.99672,-1.55484057 6.96647,1.44623377 9.50857,3.59878327 34.17588,28.93872347 12.66965,13.015126 23.25372,23.663866 23.52016,23.663866 0.26644,0 4.57897,-4.287155 9.5834,-9.527011 34.87183,-36.5123459 36.97784,-38.5726586 41.92756,-41.0178337 4.43711,-2.19194446 4.99685,-2.31411043 10.55449,-2.30359298 5.06002,0.009576 6.35621,0.23795025 9.40472,1.65701558 4.55876,2.1220694 9.88143,7.1744702 11.7683,11.1707321 0.81591,1.728066 5.13072,17.524651 9.58846,35.103523 4.45773,17.578871 8.19717,32.056394 8.30987,32.172267 0.11269,0.115873 14.5389,-3.877131 32.05824,-8.873354 29.20926,-8.329982 32.2615,-9.082861 36.77051,-9.069954 6.36522,0.01826 10.82131,1.700252 15.2659,5.762354 5.82471,5.32346 9.25689,14.880085 7.79742,21.71129 -0.37209,1.741599 -4.56022,16.950854 -9.30696,33.798344 -4.74673,16.84748 -8.5391,30.7164 -8.42749,30.8198 0.11162,0.1034 14.58566,3.83988 32.16453,8.30328 17.57887,4.46341 33.37545,8.78233 35.10352,9.59761 1.73561,0.81884 4.57042,2.99275 6.33338,4.85681 5.81967,6.15345 7.83881,13.16432 5.93575,20.61014 -2.02562,7.92534 -3.88439,10.13656 -29.17339,34.70517 -12.87481,12.50804 -23.34297,22.92049 -23.26258,23.13877 0.0804,0.21828 10.62244,10.42856 23.42678,22.6895 12.80436,12.26095 24.07637,23.54736 25.04892,25.08092 3.219,5.07582 4.43685,9.11586 4.47162,14.83391 0.0269,4.41364 -0.22335,5.77326 -1.61195,8.76032 -2.11911,4.5585 -7.17098,9.88114 -11.16853,11.76714 -1.72807,0.81528 -17.52465,5.1342 -35.10352,9.59761 -17.57887,4.4634 -32.05291,8.19988 -32.16453,8.30328 -0.11161,0.1034 3.68076,13.97232 8.42749,30.8198 10.47239,37.16942 10.17863,35.87632 9.28401,40.86677 -1.96913,10.98439 -9.1631,18.17552 -20.18115,20.17318 -4.98869,0.90449 -3.67446,1.2028 -40.86677,-9.27604 -16.84748,-4.74673 -30.72052,-8.5391 -30.82895,-8.42749 -0.10843,0.11162 -3.84473,14.58566 -8.30288,32.16453 -4.68549,18.47527 -8.77357,33.32724 -9.68846,35.19809 -2.01133,4.11295 -7.11633,8.95824 -11.66754,11.07396 -2.98706,1.3886 -4.34668,1.63878 -8.76032,1.61195 -5.72158,-0.0348 -9.75801,-1.25257 -14.84513,-4.47873 -1.53973,-0.97647 -12.81834,-12.24848 -25.06356,-25.04892 -12.24523,-12.80043 -22.45045,-23.3395 -22.67828,-23.42013 -0.22783,-0.0806 -10.50979,10.2593 -22.84881,22.97766 -12.8793,13.27525 -23.79175,24.00259 -25.62107,25.18647 -6.71547,4.34607 -14.16488,5.97282 -19.90615,4.34698 z"
     id="path925" />
  <path
     style="opacity:1;fill:#ffd700;stroke:#000000;stroke-width:37.9843;stroke-dasharray:none;stroke-opacity:1"
     d="m 192.3664,490.65508 c -5.62487,-1.59287 -11.16915,-6.20516 -13.77133,-11.45643 -0.79078,-1.5958 -4.68007,-15.73995 -8.89165,-32.3362 -4.11732,-16.22483 -7.55829,-29.57815 -7.64659,-29.67402 -0.0883,-0.0959 -12.88893,3.4057 -28.44586,7.7813 -15.55692,4.37558 -29.65489,8.24694 -31.32883,8.60301 -6.260157,1.33162 -14.992349,-1.83616 -19.918067,-7.22567 -3.743739,-4.09626 -5.299727,-8.21338 -5.325082,-14.09003 -0.01798,-4.16839 0.662978,-6.93697 8.352176,-33.95736 4.604461,-16.18042 8.292865,-29.49265 8.196452,-29.5827 -0.09642,-0.0901 -12.939594,-3.39082 -28.540394,-7.33502 -29.730646,-7.51649 -32.236689,-8.24181 -35.456366,-10.26206 -3.028044,-1.90001 -6.740832,-6.23414 -8.408277,-9.81546 -1.287416,-2.76507 -1.50045,-3.9841 -1.509254,-8.63634 -0.0096,-5.1076 0.108961,-5.65813 2.078067,-9.64413 2.333222,-4.72306 4.553818,-7.02678 32.015568,-33.21415 C 66.104641,258.04469 68.476704,255.53369 67.949511,254.79661 67.601317,254.30979 57.733297,244.55687 46.020575,233.12347 23.246183,210.89218 21.219838,208.48788 19.90024,202.13142 c -2.140386,-10.31018 3.993497,-20.92494 14.229034,-24.6235 1.404073,-0.50736 15.31715,-4.14954 30.917951,-8.09372 15.6008,-3.9442 28.443976,-7.24496 28.540394,-7.33502 0.09641,-0.09 -3.591991,-13.40228 -8.196452,-29.58269 -7.689198,-27.0204 -8.370158,-29.78898 -8.352176,-33.957372 0.02837,-6.578537 1.603724,-10.295436 6.393664,-15.085374 4.789939,-4.789941 8.506838,-6.365281 15.085376,-6.393663 4.168389,-0.01798 6.936969,0.662977 33.957359,8.352175 16.18041,4.604459 29.49163,8.292863 29.58046,8.196451 0.0888,-0.09642 3.53211,-13.450166 7.65171,-29.674997 4.11961,-16.224834 8.10586,-30.804663 8.85834,-32.399622 1.73966,-3.687372 6.65081,-8.350203 10.86076,-10.311619 2.77339,-1.292128 4.03201,-1.521799 8.38112,-1.529381 4.65814,-0.0082 5.47314,0.162626 9.07683,1.901647 3.64778,1.760296 5.72169,3.689205 26.3676,24.524084 l 22.40843,22.613514 8.19035,-8.639632 c 4.50471,-4.751797 14.1605,-14.825637 21.45733,-22.386311 12.29248,-12.736953 13.58483,-13.903702 17.59442,-15.884451 4.09844,-2.024641 4.61411,-2.137231 9.74427,-2.127521 4.67027,0.0088 5.86662,0.219621 8.68031,1.52938 4.21185,1.960583 9.1215,6.622412 10.8584,10.31029 0.75118,1.594959 4.74035,16.174788 8.8648,32.399622 4.12445,16.224831 7.56879,29.578578 7.65407,29.674997 0.0852,0.09641 13.39357,-3.591992 29.574,-8.196451 27.02039,-7.689198 29.78897,-8.370159 33.95735,-8.352175 5.87667,0.02537 9.99378,1.581343 14.09003,5.32508 5.39207,4.928044 8.55942,13.662672 7.22272,19.918069 -0.35771,1.67393 -4.2289,15.77207 -8.60267,31.32918 -4.37377,15.55712 -7.87401,28.35398 -7.77834,28.43748 0.0957,0.0835 13.44886,3.5253 29.67369,7.64845 16.22483,4.12317 30.80464,8.11317 32.39961,8.86674 3.69245,1.74449 8.35584,6.66046 10.30456,10.86267 1.25325,2.70249 1.50891,4.04362 1.4873,7.80189 -0.0289,5.02193 -1.13793,8.5649 -4.1506,13.25975 -0.96323,1.50106 -11.13233,11.84588 -22.59801,22.98843 -11.46567,11.14257 -21.14164,20.69227 -21.50216,21.22155 -0.56656,0.8318 2.27161,3.76495 20.9195,21.61955 11.86624,11.36148 22.3097,21.81572 23.20767,23.23167 2.97165,4.68583 4.09569,8.41437 4.12779,13.69228 0.0248,4.07368 -0.20615,5.32856 -1.48779,8.08554 -1.95495,4.2054 -6.61784,9.11865 -10.31298,10.86673 -1.59757,0.75576 -16.17739,4.74288 -32.39962,8.86026 -16.22225,4.11738 -29.57342,7.5575 -29.6693,7.64476 -0.0959,0.0873 3.40571,12.887 7.78129,28.44394 4.37559,15.55692 8.24695,29.6549 8.60301,31.32883 0.82677,3.88672 -0.0231,8.61611 -2.43488,13.54921 -2.98651,6.10871 -8.68927,10.1228 -16.36348,11.51802 -4.48664,0.81571 -3.46832,1.05011 -39.31459,-9.0502 -14.62221,-4.12006 -26.65407,-7.41367 -26.73749,-7.31912 -0.0834,0.0946 -3.52655,13.44678 -7.6514,29.67161 -4.29005,16.87457 -8.12346,30.77815 -8.95711,32.48691 -1.85096,3.79401 -6.56227,8.26708 -10.76537,10.22097 -2.75696,1.28164 -4.01187,1.51255 -8.08553,1.48779 -5.27534,-0.0321 -9.00652,-1.15618 -13.68407,-4.12259 -1.41145,-0.89511 -11.86571,-11.34224 -23.23168,-23.21582 -17.91113,-18.71107 -20.79367,-21.4999 -21.62775,-20.92471 -0.52929,0.36501 -10.07899,10.04464 -21.22156,21.51033 -11.14256,11.46567 -21.43151,21.59503 -22.86432,22.50971 -5.96467,3.80767 -13.07557,5.30424 -18.24601,3.84004 z"
     id="path927" />
</svg>
