<?xml version="1.0" standalone="no"?>
<!DOCTYPE svg PUBLIC "-//W3C//DTD SVG 20010904//EN"
 "http://www.w3.org/TR/2001/REC-SVG-20010904/DTD/svg10.dtd">
<svg version="1.0" xmlns="http://www.w3.org/2000/svg"
 width="500.000000pt" height="500.000000pt" viewBox="0 0 500.000000 500.000000"
 preserveAspectRatio="xMidYMid meet">

<g transform="translate(0.000000,500.000000) scale(0.100000,-0.100000)"
fill="#000000" stroke="none">
<path d="M665 3791 c-64 -27 -81 -110 -32 -158 60 -61 162 -19 162 67 0 66
-72 116 -130 91z"/>
<path d="M1880 3784 c-141 -38 -231 -139 -277 -314 -18 -70 -24 -283 -10 -375
l7 -50 -95 -44 c-190 -87 -340 -213 -401 -337 -26 -54 -29 -69 -29 -164 0 -95
3 -110 29 -164 36 -74 138 -183 227 -241 37 -25 110 -66 162 -90 l95 -45 -5
-163 c-6 -191 7 -272 62 -384 39 -79 97 -138 173 -175 69 -33 204 -37 296 -9
91 28 213 93 309 164 l79 58 76 -57 c94 -71 236 -146 319 -169 86 -24 220 -17
285 14 76 37 134 94 173 174 55 112 68 193 62 385 l-5 163 94 44 c52 24 126
64 163 89 89 59 191 168 227 242 26 54 29 69 29 164 0 95 -3 110 -29 164 -61
124 -211 250 -401 337 l-95 44 7 50 c14 92 8 305 -10 375 -40 151 -123 258
-232 300 -71 26 -181 31 -265 11 -82 -19 -205 -82 -309 -157 l-93 -66 -27 21
c-14 11 -62 46 -107 76 -183 124 -343 167 -484 129z m244 -84 c143 -49 288
-153 461 -331 429 -442 756 -1147 755 -1627 -1 -283 -104 -442 -299 -459 -316
-29 -809 434 -1125 1057 -165 326 -252 611 -263 871 -6 137 5 225 39 317 27
71 105 152 168 175 65 23 194 22 264 -3z m1034 -11 c68 -34 111 -79 146 -154
81 -172 62 -471 -51 -808 l-47 -139 -39 77 -38 77 35 127 c54 196 60 235 61
401 0 141 -2 160 -23 206 -31 68 -76 110 -135 126 -41 11 -57 10 -114 -5 -80
-21 -166 -64 -252 -124 l-63 -46 -40 41 -41 40 69 51 c146 108 274 160 395
160 65 1 84 -3 137 -30z m-58 -186 c27 -28 40 -52 49 -91 12 -57 15 -232 4
-270 -5 -21 -10 -23 -42 -17 -20 4 -84 15 -143 24 l-106 16 -86 103 c-47 56
-86 104 -86 107 0 2 28 24 63 48 107 76 197 115 271 116 32 1 45 -6 76 -36z
m-52 -439 c76 -14 92 -19 88 -33 -3 -9 -10 -36 -16 -59 -11 -44 -11 -44 -48
-37 -62 11 -66 13 -107 77 -50 76 -50 77 -28 73 10 -2 60 -11 111 -21z m-1428
-125 c23 -88 25 -84 -46 -114 -190 -81 -324 -215 -324 -326 0 -108 134 -241
333 -327 52 -23 52 -21 35 -91 -13 -60 -10 -60 -133 1 -154 77 -257 167 -313
273 -24 44 -27 62 -27 145 0 83 3 101 27 145 35 68 98 137 172 189 66 48 244
138 260 133 5 -2 13 -14 16 -28z m1895 -21 c154 -77 257 -167 313 -273 24 -44
27 -62 27 -145 0 -83 -3 -101 -27 -145 -56 -106 -159 -196 -313 -273 -123 -61
-120 -61 -133 -1 -7 28 -12 55 -12 60 0 5 30 23 67 40 187 84 313 212 313 319
0 108 -119 231 -309 317 -42 20 -77 37 -79 38 -3 3 13 71 23 103 6 17 28 10
130 -40z m-425 -67 c0 -17 -18 -21 -24 -6 -3 9 0 15 9 15 8 0 15 -4 15 -9z
m-1405 -141 c12 -36 34 -95 49 -133 l27 -67 -39 -103 c-22 -56 -46 -121 -53
-144 -7 -24 -16 -43 -21 -43 -29 0 -198 101 -249 148 -104 96 -104 168 0 264
58 54 223 150 250 145 8 -1 24 -31 36 -67z m1767 23 c110 -57 203 -138 219
-194 19 -61 0 -107 -70 -171 -51 -47 -220 -148 -249 -148 -5 0 -14 19 -21 43
-7 23 -31 88 -53 144 l-39 103 34 87 c19 49 40 106 47 128 16 50 19 55 32 55
5 0 50 -21 100 -47z m-1608 -402 l29 -60 -26 -83 c-87 -278 -108 -515 -57
-652 12 -30 30 -67 42 -81 27 -34 92 -64 139 -65 81 0 207 54 324 139 l69 51
43 -42 c50 -49 51 -46 -50 -116 -143 -98 -256 -142 -367 -142 -217 0 -330 158
-330 459 0 128 16 247 54 391 30 117 85 272 95 266 4 -3 20 -32 35 -65z m92
-168 c19 -25 17 -32 -6 -26 -11 3 -20 14 -20 24 0 24 9 24 26 2z m51 -110 c8
-3 31 -31 52 -62 57 -84 56 -82 29 -77 -12 3 -65 12 -115 22 -51 9 -93 20 -93
24 0 5 5 32 12 60 l12 52 44 -7 c25 -4 51 -9 59 -12z m28 -198 c55 -9 109 -18
120 -20 16 -4 111 -111 170 -191 11 -16 3 -23 -97 -90 -147 -98 -266 -118
-319 -55 -46 56 -67 173 -54 307 l7 76 36 -5 c21 -3 82 -13 137 -22z"/>
<path d="M1879 3664 c-45 -14 -78 -39 -66 -50 3 -4 26 3 50 15 32 16 62 21
120 21 42 0 77 4 77 9 0 24 -111 27 -181 5z"/>
<path d="M2140 3623 c0 -5 26 -21 58 -38 124 -65 317 -234 428 -375 36 -45 64
-63 64 -41 0 15 -258 278 -325 331 -102 81 -225 148 -225 123z"/>
<path d="M1890 3582 c-88 -48 -125 -160 -117 -352 10 -249 90 -518 251 -840
234 -468 616 -887 893 -979 111 -37 192 -24 246 40 55 63 72 132 71 279 -5
625 -585 1591 -1100 1832 -87 41 -191 49 -244 20z m227 -81 c60 -28 193 -115
193 -126 0 -3 -15 -22 -33 -42 -19 -21 -57 -67 -86 -103 l-52 -65 -112 -18
c-62 -10 -128 -20 -148 -23 l-36 -6 -6 84 c-11 162 22 293 83 326 37 20 121 8
197 -27z m296 -219 l37 -38 -47 -55 c-116 -135 -253 -337 -348 -512 -26 -48
-49 -86 -51 -84 -3 2 -15 32 -29 66 l-24 62 56 97 c30 53 90 147 132 208 73
108 220 294 231 294 3 0 23 -17 43 -38z m202 -232 l46 -60 -161 0 c-179 0
-170 -6 -110 73 l35 46 72 1 72 0 46 -60z m-554 8 c-12 -18 -32 -50 -44 -70
-25 -42 -27 -44 -89 -53 l-45 -7 -7 39 c-4 21 -10 48 -12 59 -5 20 2 23 83 37
88 17 125 24 131 26 2 0 -6 -14 -17 -31z m637 -147 c28 -7 123 -154 202 -309
l52 -102 -52 -102 c-28 -55 -80 -146 -115 -202 -53 -85 -68 -102 -96 -109 -19
-5 -118 -7 -221 -5 -173 3 -188 4 -202 23 -29 40 -135 222 -177 304 -49 97
-50 95 34 246 98 178 150 254 177 258 43 7 374 5 398 -2z m-768 -71 c-6 -11
-13 -20 -15 -20 -3 0 -5 9 -5 20 0 11 7 20 15 20 13 0 14 -4 5 -20z m1094
-509 l26 -64 -38 -69 c-55 -104 -206 -323 -297 -433 l-79 -96 -44 44 -44 44
88 109 c104 129 218 301 294 441 30 56 58 98 62 95 3 -4 18 -36 32 -71z m66
-182 c0 -4 -9 -9 -20 -12 -23 -6 -24 -3 -8 23 9 14 14 16 20 7 4 -7 8 -15 8
-18z m29 -116 c20 -72 17 -80 -42 -93 -67 -13 -161 -29 -164 -26 -1 1 18 32
42 69 32 48 53 68 73 73 15 3 32 7 37 9 32 11 45 3 54 -32z m-504 -83 l-46
-60 -72 0 -72 1 -35 46 c-60 79 -69 73 110 73 l161 0 -46 -60z m541 -126 c10
-82 -1 -222 -21 -272 -9 -23 -31 -54 -48 -68 -28 -23 -37 -26 -85 -21 -29 3
-83 20 -119 36 -74 35 -193 117 -193 133 0 5 19 31 43 58 23 26 58 68 77 94
19 25 44 48 55 50 31 7 248 43 267 45 13 1 18 -11 24 -55z"/>
<path d="M2405 2783 c-211 -76 -272 -336 -115 -493 61 -61 119 -85 210 -85 91
0 149 24 210 85 61 61 85 119 85 210 0 91 -24 149 -85 210 -80 80 -203 109
-305 73z m180 -50 c92 -31 165 -134 165 -233 0 -60 -30 -130 -75 -175 -98 -98
-252 -98 -350 0 -98 98 -98 252 0 350 69 70 164 91 260 58z"/>
<path d="M2465 2680 c-43 -9 -79 -30 -69 -40 11 -11 107 13 112 28 5 15 -9 20
-43 12z"/>
<path d="M2570 2651 c0 -5 13 -19 29 -30 50 -36 69 -110 49 -190 -1 -7 2 -15
9 -18 7 -2 16 11 22 33 16 59 -4 131 -49 177 -36 36 -60 47 -60 28z"/>
<path d="M2603 2379 c-7 -7 -36 -20 -65 -30 -60 -20 -62 -35 -4 -32 40 2 106
39 106 61 0 15 -22 16 -37 1z"/>
<path d="M3793 2528 c2 -91 -24 -158 -89 -227 -57 -62 -62 -71 -40 -71 25 0
115 111 136 167 24 65 28 193 6 193 -10 0 -13 -15 -13 -62z"/>
<path d="M3513 2161 c-69 -34 -89 -51 -60 -51 22 0 157 69 157 80 0 15 -18 10
-97 -29z"/>
<path d="M1696 1908 c-9 -81 -7 -186 4 -193 15 -9 18 8 23 133 3 85 2 112 -8
112 -7 0 -15 -21 -19 -52z"/>
<path d="M1708 1615 c-17 -17 35 -156 79 -213 28 -37 112 -82 155 -82 43 0 24
27 -23 33 -46 6 -102 45 -130 91 -11 17 -29 64 -41 104 -21 68 -27 79 -40 67z"/>
<path d="M1165 941 c-64 -27 -81 -110 -32 -158 60 -61 162 -19 162 67 0 66
-72 116 -130 91z"/>
</g>
</svg>
