<?xml version="1.0" encoding="UTF-8" standalone="no"?>
<svg
   viewBox="0 0 576 512"
   version="1.1"
   id="svg12810"
   sodipodi:docname="star.svg"
   inkscape:version="1.2.1 (9c6d41e410, 2022-07-14)"
   xmlns:inkscape="http://www.inkscape.org/namespaces/inkscape"
   xmlns:sodipodi="http://sodipodi.sourceforge.net/DTD/sodipodi-0.dtd"
   xmlns="http://www.w3.org/2000/svg"
   xmlns:svg="http://www.w3.org/2000/svg">
  <defs
     id="defs12814" />
  <sodipodi:namedview
     id="namedview12812"
     pagecolor="#ffffff"
     bordercolor="#000000"
     borderopacity="0.25"
     inkscape:showpageshadow="2"
     inkscape:pageopacity="0.0"
     inkscape:pagecheckerboard="0"
     inkscape:deskcolor="#d1d1d1"
     showgrid="false"
     inkscape:zoom="1.5136719"
     inkscape:cx="173.41935"
     inkscape:cy="204.46968"
     inkscape:window-width="2400"
     inkscape:window-height="1261"
     inkscape:window-x="-9"
     inkscape:window-y="-9"
     inkscape:window-maximized="1"
     inkscape:current-layer="svg12810" />
  <!--! Font Awesome Pro 6.1.1 by @fontawesome - https://fontawesome.com License - https://fontawesome.com/license (Commercial License) Copyright 2022 Fonticons, Inc. -->
  <path
     d="m 372.02905,161.82258 128.72746,18.99112 c 10.66011,1.52288 19.61818,9.04765 23.02224,19.34942 3.40407,10.39136 0.62706,21.67854 -7.07688,29.38248 l -93.34308,91.55145 22.03684,131.32531 c 1.79163,10.74968 -2.59783,21.67853 -11.55589,28.03876 -8.86849,6.36022 -20.60357,7.16645 -30.18869,2.06036 L 288.62942,421.1587 173.69739,482.52148 c -9.67471,5.10609 -21.40978,4.29986 -30.27828,-2.06036 -8.86848,-6.36023 -13.34752,-17.28908 -11.46631,-28.03876 L 153.98964,321.09705 60.62864,229.5456 C 52.915743,221.84166 50.174573,210.55448 53.560724,200.16312 56.937916,189.86135 65.869112,182.33658 76.609837,180.8137 L 205.2298,161.82258 262.91976,43.280455 c 4.74778,-9.868209 14.78082,-16.132677 25.70966,-16.132677 11.01844,0 21.05147,6.264468 25.79925,16.132677 z"
     id="path12808"
     style="fill:#ffd700;stroke:#000000;stroke-width:48.4465;stroke-dasharray:none;stroke-opacity:1" />
</svg>
